<svg width="16" height="16" viewBox="0 0 16 16" fill="none" xmlns="http://www.w3.org/2000/svg">
<path d="M13.5 9.5H2.5C2.36739 9.5 2.24021 9.55268 2.14645 9.64645C2.05268 9.74021 2 9.86739 2 10C2 10.1326 2.05268 10.2598 2.14645 10.3536C2.24021 10.4473 2.36739 10.5 2.5 10.5H13.5C13.6326 10.5 13.7598 10.4473 13.8536 10.3536C13.9473 10.2598 14 10.1326 14 10C14 9.86739 13.9473 9.74021 13.8536 9.64645C13.7598 9.55268 13.6326 9.5 13.5 9.5Z" fill="black" fill-opacity="0.3"/>
<path d="M2.5 6.5H13.5C13.6326 6.5 13.7598 6.44732 13.8536 6.35355C13.9473 6.25979 14 6.13261 14 6C14 5.86739 13.9473 5.74021 13.8536 5.64645C13.7598 5.55268 13.6326 5.5 13.5 5.5H2.5C2.36739 5.5 2.24021 5.55268 2.14645 5.64645C2.05268 5.74021 2 5.86739 2 6C2 6.13261 2.05268 6.25979 2.14645 6.35355C2.24021 6.44732 2.36739 6.5 2.5 6.5Z" fill="black" fill-opacity="0.3"/>
</svg>
