<svg width="128" height="36" viewBox="0 0 128 36" fill="none" xmlns="http://www.w3.org/2000/svg">
<path fill-rule="evenodd" clip-rule="evenodd" d="M124.282 20.243C124.2 19.7107 123.981 19.2047 123.589 18.713H127.999L122.43 25.8188C122.507 25.6643 122.583 25.5121 122.659 25.3622C123.268 24.1491 123.803 23.0842 124.091 22.1233C124.288 21.4618 124.373 20.8398 124.282 20.243ZM123.589 18.4929H127.999L122.43 11.387C122.507 11.5416 122.584 11.694 122.659 11.844L122.659 11.844C123.268 13.057 123.803 14.1218 124.091 15.0826C124.288 15.7441 124.373 16.3661 124.282 16.9629C124.2 17.4952 123.981 18.0012 123.589 18.4929Z" fill="#FF0000"/>
<path fill-rule="evenodd" clip-rule="evenodd" d="M28.1769 7.01297C29.1385 7.01297 29.9572 6.67532 30.6331 6.00001C31.3348 5.29874 31.6856 4.46758 31.6856 3.50657C31.6856 2.54538 31.3348 1.72722 30.6331 1.05191C29.9572 0.350634 29.1385 0 28.1769 0C27.2153 0 26.3837 0.350634 25.682 1.05191C25.0063 1.72722 24.6684 2.54538 24.6684 3.50657C24.6684 4.46758 25.0063 5.29874 25.682 6.00001C26.3837 6.67532 27.2153 7.01297 28.1769 7.01297ZM25.2532 28.2079H31.1009V19.2384H25.2532V28.2079ZM25.2532 17.9178V8.72721H31.1009V17.9178L25.2532 17.9178ZM38.4835 19.2384L34.7934 24.3117V28.2079H50.3872V22.7533H42.6293L45.1859 19.2384H38.4835ZM46.1464 17.9178H39.444L42.1615 14.1817H35.1832V8.72717H49.9974V12.6234L46.1464 17.9178ZM53.8821 19.2384V28.2079H59.7298V19.2384H53.8821ZM59.7298 17.9178H53.8821V8.72724H59.7298V17.9178ZM64.0082 19.2384V36H69.856V26.3765C71.2074 27.9611 73.1436 28.7533 75.6646 28.7533C78.2377 28.7533 80.4337 27.7663 82.2532 25.7921C83.9093 23.9951 84.8117 21.8106 84.9601 19.2384H79.0896C78.9572 20.3364 78.5302 21.2353 77.8088 21.9351C76.9512 22.7922 75.8465 23.2208 74.495 23.2208C73.1436 23.2208 72.0261 22.7922 71.1424 21.9351C70.4423 21.2353 70.0279 20.3364 69.8993 19.2384H64.0082ZM69.8775 17.9178H64.0082V8.72714H69.856V10.5584C71.2074 8.97389 73.1436 8.1817 75.6646 8.1817C78.2117 8.1817 80.4077 9.18185 82.2532 11.1818C83.9556 13.029 84.8615 15.2745 84.9708 17.9178H79.1121C79.0125 16.7188 78.5781 15.7462 77.8088 14.9999C76.9512 14.1427 75.8465 13.7142 74.495 13.7142C73.1436 13.7142 72.0261 14.1427 71.1424 14.9999C70.3958 15.7462 69.9741 16.7188 69.8775 17.9178ZM88.2993 19.2384V28.2079H94.147V19.4025C94.147 19.3473 94.1476 19.2926 94.1488 19.2384H88.2993ZM94.3219 17.9178L88.2993 17.9178V8.72716H94.147V12.1948C94.5108 10.974 95.2255 10.026 96.2911 9.35069C97.3826 8.67521 98.6171 8.33755 99.9947 8.33755V14.9611C98.5392 14.7272 97.2007 14.9741 95.9792 15.7014C95.1352 16.1859 94.5827 16.9248 94.3219 17.9178ZM101.207 19.2384C101.371 21.7884 102.364 23.9729 104.185 25.7921C106.159 27.7663 108.603 28.7533 111.512 28.7533C114.423 28.7533 116.867 27.7663 118.842 25.7921C120.662 23.9729 121.655 21.7884 121.82 19.2384H115.947C115.811 20.2443 115.398 21.0912 114.71 21.7793C113.853 22.6364 112.786 23.0649 111.512 23.0649C110.24 23.0649 109.173 22.6364 108.316 21.7793C107.628 21.0912 107.215 20.2443 107.079 19.2384H101.207ZM107.054 17.9178H101.195C101.316 15.2977 102.313 13.0522 104.185 11.1818C106.184 9.18185 108.628 8.1817 111.512 8.1817C114.398 8.1817 116.842 9.18185 118.842 11.1818C120.713 13.0522 121.711 15.2977 121.832 17.9178H115.972C115.869 16.8143 115.448 15.8937 114.71 15.1559C113.853 14.2986 112.786 13.87 111.512 13.87C110.24 13.87 109.173 14.2986 108.316 15.1559C107.578 15.8937 107.157 16.8143 107.054 17.9178ZM20.9627 17.9178H15.0933C14.9966 16.7192 14.5749 15.7469 13.8285 15.0007C12.9708 14.1436 11.8531 13.715 10.4757 13.715C9.09826 13.715 7.98073 14.1436 7.12309 15.0007C6.37645 15.7469 5.95481 16.7192 5.85806 17.9178H0C0.109476 15.2749 1.01549 13.0297 2.71775 11.1826C4.56298 9.1827 6.75924 8.18255 9.30617 8.18255C11.8271 8.18255 13.7635 8.97474 15.1149 10.5593V0.935818L20.9627 0.935818V17.9178ZM0.0105899 19.2384C0.158902 21.8109 1.06138 23.9957 2.71775 25.793C4.53699 27.7671 6.73325 28.7541 9.30617 28.7541C11.8271 28.7541 13.7635 27.9619 15.1149 26.3774V28.2087H20.9627V19.2384H15.0717C14.9432 20.3368 14.5288 21.236 13.8285 21.9359C12.9708 22.7931 11.8531 23.2216 10.4757 23.2216C9.09826 23.2216 7.98073 22.7931 7.12309 21.9359C6.42258 21.236 6.00815 20.3368 5.87971 19.2384H0.0105899ZM56.806 7.013C57.7676 7.013 58.5863 6.67535 59.262 6.00005C59.9637 5.29877 60.3147 4.46761 60.3147 3.5066C60.3147 2.54541 59.9637 1.72725 59.262 1.05194C58.5863 0.350665 57.7676 3.05176e-05 56.806 3.05176e-05C55.8444 3.05176e-05 55.0128 0.350665 54.3111 1.05194C53.6352 1.72725 53.2973 2.54541 53.2973 3.5066C53.2973 4.46761 53.6352 5.29877 54.3111 6.00005C55.0128 6.67535 55.8444 7.013 56.806 7.013Z" fill="black"/>
</svg>
