<svg width="40" height="40" viewBox="0 0 40 40" fill="none" xmlns="http://www.w3.org/2000/svg">
<path d="M35 40H5C2.36 40 0 37.64 0 35V5C0 2.36 2.36 0 5 0H35C37.64 0 40 2.36 40 5V35C40 37.64 37.64 40 35 40Z" fill="#01605A"/>
<path d="M16.2503 6.66699H19.167V19.5837H16.2503V19.167C15.5618 19.6393 14.6069 20.0003 13.7503 20.0003C11.2052 20.0003 9.16699 17.7707 9.16699 15.0003C9.16699 12.2299 11.2011 10.0003 13.7503 10.0003C14.6069 10.0003 15.5577 10.3614 16.2503 10.8337V6.66699ZM16.2503 13.7503C15.8733 13.0419 14.917 12.917 14.167 12.917C13.0604 12.917 12.5003 13.7986 12.5003 15.0003C12.5003 16.2021 13.0604 17.0837 14.167 17.0837C14.917 17.0837 15.8733 16.521 16.2503 15.8337V13.7503Z" fill="white"/>
<path d="M30.417 15.001C30.417 17.7568 28.1729 20.001 25.417 20.001C22.6611 20.001 20.417 17.7568 20.417 15.001C20.417 12.2451 22.6611 10.001 25.417 10.001C28.1771 10.001 30.417 12.2451 30.417 15.001ZM27.0837 15.001C27.0837 13.9313 26.3818 12.9176 25.417 12.9176C24.4564 12.9176 23.7503 13.9355 23.7503 15.001C23.7503 16.0706 24.4522 17.0843 25.417 17.0843C26.3818 17.0843 27.0837 16.0706 27.0837 15.001Z" fill="white"/>
<path d="M26.667 29.5833L27.917 33.3333L32.0837 25.4167L24.167 20.8333L25.417 25C17.9827 26.608 10.8023 24.4708 7.91699 20C7.92116 20.8102 8.10016 21.7106 8.33366 22.5C10.1141 28.4749 18.1027 31.4365 26.667 29.5833Z" fill="white"/>
</svg>
