<svg width="36" opacity="0.6" height="36" viewBox="0 0 36 36" fill="none" xmlns="http://www.w3.org/2000/svg">
<path d="M8.73917 9.94675C8.62564 9.67267 8.59595 9.37107 8.65385 9.08012C8.71176 8.78916 8.85465 8.5219 9.06445 8.31217L16.9395 0.439178C17.2208 0.157971 17.6022 0 18 0C18.3978 0 18.7792 0.157971 19.0605 0.439178L26.9355 8.31217C27.1453 8.52193 27.2882 8.7892 27.3461 9.08018C27.404 9.37115 27.3743 9.67276 27.2608 9.94686C27.1473 10.221 26.955 10.4552 26.7084 10.6201C26.4617 10.7849 26.1717 10.8729 25.875 10.8729H19.5V22.4999C19.5 22.8977 19.342 23.2793 19.0607 23.5606C18.7794 23.8419 18.3978 23.9999 18 23.9999C17.6022 23.9999 17.2206 23.8419 16.9393 23.5606C16.658 23.2793 16.5 22.8977 16.5 22.4999V10.8729H10.125C9.8283 10.8729 9.53826 10.7849 9.29158 10.6201C9.0449 10.4552 8.85265 10.2209 8.73917 9.94675ZM34.5 20.9999C34.1022 20.9999 33.7207 21.158 33.4394 21.4393C33.1581 21.7206 33 22.1021 33 22.4999V32.9999H3V22.4999C3 22.1021 2.84196 21.7206 2.56066 21.4393C2.27936 21.1579 1.89782 20.9999 1.5 20.9999C1.10218 20.9999 0.720645 21.1579 0.43934 21.4393C0.158036 21.7206 0 22.1021 0 22.4999V32.9999C0.000909634 33.7953 0.317272 34.5578 0.879684 35.1202C1.4421 35.6826 2.20463 35.999 3 35.9999H33C33.7954 35.999 34.5579 35.6826 35.1203 35.1202C35.6827 34.5578 35.9991 33.7953 36 32.9999V22.4999C36 22.1021 35.8419 21.7206 35.5606 21.4393C35.2793 21.158 34.8978 20.9999 34.5 20.9999Z" fill="#171A23"/>
</svg>
